<svg viewBox="0 0 1000 1000" xmlns="http://www.w3.org/2000/svg"><defs><linearGradient id="c" gradientTransform="rotate(-45 .5 .5)"><stop offset="0%" stop-color="rgba(49,133,155,1)"/><stop offset="100%" stop-color="#9c9c9c"/></linearGradient><clipPath id="b"><path fill="currentColor" d="M906 642q-15 142-153 176.5t-260.5 58Q370 900 233 846.5t-168.5-200Q33 500 93.5 374.5t163-217Q359 66 503.5 55T771 129q123 85 136.5 228T906 642Z"/></clipPath><filter id="a" x="-50vw" y="-50vh" width="100vw" height="100vh"><feFlood flood-color="#fff" result="neutral-gray"/><feTurbulence type="fractalNoise" baseFrequency="2.5" numOctaves="100" stitchTiles="stitch" result="noise"/><feColorMatrix in="noise" type="saturate" values="0" result="destaturatedNoise"/><feComponentTransfer in="desaturatedNoise" result="theNoise"><feFuncA type="table" tableValues="0 0 0.15 0"/></feComponentTransfer><feBlend in="SourceGraphic" in2="theNoise" mode="soft-light" result="noisy-image"/></filter></defs><g filter="url(#a)" clip-path="url(#b)"><path fill="url(#c)" d="M906 642q-15 142-153 176.5t-260.5 58Q370 900 233 846.5t-168.5-200Q33 500 93.5 374.5t163-217Q359 66 503.5 55T771 129q123 85 136.5 228T906 642Z"/></g></svg>